<svg width="31" height="31" viewBox="0 0 31 31" fill="none" xmlns="http://www.w3.org/2000/svg">
<rect x="0.279663" y="0.349976" width="30" height="30" rx="15" fill="#0B0B0C" fill-opacity="0.8"/>
<path d="M15.732 20.3262C15.732 20.6338 15.7682 20.9324 15.8135 21.231H7.58919C7.10927 21.231 6.64901 21.0403 6.30966 20.701C5.97031 20.3616 5.77966 19.9013 5.77966 19.4214V8.56428C5.77966 8.08437 5.97031 7.62411 6.30966 7.28476C6.64901 6.94541 7.10927 6.75476 7.58919 6.75476H8.49395L10.3035 10.3738H13.0178L11.2082 6.75476H13.0178L14.8273 10.3738H17.5416L15.732 6.75476H17.5416L19.3511 10.3738H22.0654L20.2559 6.75476H23.8749V15.6305C23.323 15.3138 22.7168 15.0967 22.0654 14.979V12.1833H9.18157L7.58919 8.98952V19.4214H15.8135C15.7682 19.72 15.732 20.0186 15.732 20.3262ZM22.0654 19.4214V16.7071H20.2559V19.4214H17.5416V21.231H20.2559V23.9452H22.0654V21.231H24.7797V19.4214H22.0654Z" fill="#F4EC1C"/>
</svg>
