<svg width="22" height="19" viewBox="0 0 22 19" fill="none" xmlns="http://www.w3.org/2000/svg">
<path d="M11.5 15C11.5 15.34 11.54 15.67 11.59 16H2.5C1.96957 16 1.46086 15.7893 1.08579 15.4142C0.710714 15.0391 0.5 14.5304 0.5 14V2C0.5 1.46957 0.710714 0.960859 1.08579 0.585786C1.46086 0.210714 1.96957 0 2.5 0H3.5L5.5 4H8.5L6.5 0H8.5L10.5 4H13.5L11.5 0H13.5L15.5 4H18.5L16.5 0H20.5V9.81C19.89 9.46 19.22 9.22 18.5 9.09V6H4.26L2.5 2.47V14H11.59C11.54 14.33 11.5 14.66 11.5 15ZM18.5 14V11H16.5V14H13.5V16H16.5V19H18.5V16H21.5V14H18.5Z" fill="black"/>
</svg>
