<svg width="8" height="12" viewBox="0 0 8 12" fill="none" xmlns="http://www.w3.org/2000/svg">
<path d="M6.79252 10.872C6.88522 10.7795 6.95877 10.6696 7.00895 10.5486C7.05913 10.4277 7.08496 10.298 7.08496 10.167C7.08496 10.036 7.05913 9.90636 7.00895 9.78539C6.95877 9.66441 6.88522 9.55452 6.79252 9.46201L2.91252 5.58201L6.79252 1.70201C6.97949 1.51503 7.08454 1.26144 7.08454 0.99701C7.08454 0.732584 6.97949 0.478986 6.79252 0.292008C6.60554 0.105031 6.35194 -1.04904e-05 6.08752 -1.04904e-05C5.82309 -1.04904e-05 5.56949 0.105031 5.38252 0.292008L0.792517 4.88201C0.699813 4.97452 0.626266 5.08441 0.576084 5.20539C0.525903 5.32636 0.500073 5.45604 0.500073 5.58701C0.500073 5.71798 0.525903 5.84766 0.576084 5.96863C0.626266 6.08961 0.699813 6.1995 0.792517 6.29201L5.38252 10.882C5.76252 11.262 6.40252 11.262 6.79252 10.872Z" fill="black"/>
</svg>
