<svg width="31" height="31" viewBox="0 0 31 31" fill="none" xmlns="http://www.w3.org/2000/svg">
<rect x="0.889648" y="0.349976" width="30" height="30" rx="15" fill="#0B0B0C" fill-opacity="0.8"/>
<path d="M16.5848 20.911C16.5848 21.2261 16.6218 21.532 16.6682 21.8378H8.24331C7.75169 21.8378 7.2802 21.6425 6.93257 21.2949C6.58494 20.9473 6.38965 20.4758 6.38965 19.9842V8.8622C6.38965 8.37058 6.58494 7.8991 6.93257 7.55147C7.2802 7.20384 7.75169 7.00854 8.24331 7.00854H9.17014L11.0238 10.7159H13.8043L11.9506 7.00854H13.8043L15.6579 10.7159H18.4384L16.5848 7.00854H18.4384L20.2921 10.7159H23.0726L21.2189 7.00854H24.9262V16.1007C24.1106 15.6281 23.1653 15.35 22.1457 15.35C19.0779 15.35 16.5848 17.8432 16.5848 20.911ZM24.3145 17.9822L20.9872 21.3095L19.5136 19.8359L18.4384 20.911L20.9872 23.6915L25.3896 19.289L24.3145 17.9822Z" fill="#F4EC1C"/>
</svg>
