<svg width="22" height="18" viewBox="0 0 22 18" fill="none" xmlns="http://www.w3.org/2000/svg">
<path d="M11.8896 15C11.8896 15.34 11.9296 15.67 11.9796 16H2.88965C2.35922 16 1.85051 15.7893 1.47543 15.4142C1.10036 15.0391 0.889648 14.5304 0.889648 14V2C0.889648 1.46957 1.10036 0.960859 1.47543 0.585786C1.85051 0.210714 2.35922 0 2.88965 0H3.88965L5.88965 4H8.88965L6.88965 0H8.88965L10.8896 4H13.8896L11.8896 0H13.8896L15.8896 4H18.8896L16.8896 0H20.8896V9.81C20.0096 9.3 18.9896 9 17.8896 9C14.5796 9 11.8896 11.69 11.8896 15ZM20.2296 11.84L16.6396 15.43L15.0496 13.84L13.8896 15L16.6396 18L21.3896 13.25L20.2296 11.84Z" fill="black"/>
</svg>
