<svg width="31" height="31" viewBox="0 0 31 31" fill="none" xmlns="http://www.w3.org/2000/svg">
<rect width="30" height="30" rx="15" transform="matrix(-1 0 0 1 30.8893 0.349976)" fill="#0B0B0C" fill-opacity="0.8"/>
<path d="M8.61691 10.6711L10.3982 7.10854H6.9527V15.9302C7.74784 15.5004 8.65714 15.25 9.63318 15.25C12.7562 15.25 15.2942 17.788 15.2942 20.911C15.2942 21.1935 15.2651 21.4676 15.2265 21.7378H23.5356C24.0007 21.7378 24.4468 21.5531 24.7756 21.2242C25.1045 20.8953 25.2893 20.4493 25.2893 19.9842V8.8622C25.2893 8.3971 25.1045 7.95105 24.7756 7.62218C24.4468 7.2933 24.0007 7.10854 23.5356 7.10854H22.6706L20.8446 10.7606L20.8169 10.8159H20.7551H17.9746H17.8128L17.8852 10.6711L19.6665 7.10854H18.0365L16.2104 10.7606L16.1828 10.8159H16.121H13.3405H13.1787L13.2511 10.6711L15.0324 7.10854H13.4023L11.5763 10.7606L11.5486 10.8159H11.4868H8.70636H8.54455L8.61691 10.6711ZM10.721 21.3802L7.47161 18.1308L6.52416 19.2825L10.7886 23.5469L13.2021 20.914L12.2654 19.9773L10.8624 21.3802L10.7917 21.4509L10.721 21.3802Z" fill="#F4EC1C" stroke="black" stroke-width="0.2"/>
</svg>
