<svg width="7" height="12" viewBox="0 0 7 12" fill="none" xmlns="http://www.w3.org/2000/svg">
<path d="M0.487146 0.293762C0.394443 0.386276 0.320895 0.496165 0.270714 0.617138C0.220532 0.738111 0.194702 0.867794 0.194702 0.998762C0.194702 1.12973 0.220532 1.25941 0.270714 1.38039C0.320895 1.50136 0.394443 1.61125 0.487146 1.70376L4.36715 5.58376L0.487146 9.46376C0.300169 9.65074 0.195126 9.90433 0.195126 10.1688C0.195126 10.4332 0.300169 10.6868 0.487146 10.8738C0.674124 11.0607 0.92772 11.1658 1.19215 11.1658C1.45657 11.1658 1.71017 11.0607 1.89715 10.8738L6.48715 6.28376C6.57985 6.19125 6.6534 6.08136 6.70358 5.96039C6.75376 5.83941 6.77959 5.70973 6.77959 5.57876C6.77959 5.44779 6.75376 5.31811 6.70358 5.19714C6.6534 5.07616 6.57985 4.96628 6.48715 4.87376L1.89715 0.283762C1.51715 -0.0962379 0.877146 -0.0962377 0.487146 0.293762Z" fill="black"/>
</svg>
