<svg width="30" height="31" viewBox="0 0 30 31" fill="none" xmlns="http://www.w3.org/2000/svg">
<rect y="0.349976" width="30" height="30" rx="15" fill="#0B0B0C" fill-opacity="0.8"/>
<path d="M15.1 21.7249L15 21.8249L14.89 21.7249C10.14 17.4149 7 14.5649 7 11.6749C7 9.67493 8.5 8.17493 10.5 8.17493C12.04 8.17493 13.54 9.17493 14.07 10.5349H15.93C16.46 9.17493 17.96 8.17493 19.5 8.17493C21.5 8.17493 23 9.67493 23 11.6749C23 14.5649 19.86 17.4149 15.1 21.7249ZM19.5 6.17493C17.76 6.17493 16.09 6.98493 15 8.25493C13.91 6.98493 12.24 6.17493 10.5 6.17493C7.42 6.17493 5 8.58493 5 11.6749C5 15.4449 8.4 18.5349 13.55 23.2049L15 24.5249L16.45 23.2049C21.6 18.5349 25 15.4449 25 11.6749C25 8.58493 22.58 6.17493 19.5 6.17493Z" fill="#F4EC1C"/>
</svg>
