<svg width="21" height="20" viewBox="0 0 21 20" fill="none" xmlns="http://www.w3.org/2000/svg">
<path d="M19.84 0.180054L15.91 0.960054L18.65 4.50005L20.62 4.10005L19.84 0.180054ZM12.97 1.54005L11 1.93005L13.75 5.46005L15.71 5.07005L12.97 1.54005ZM8.06995 2.50005L6.09995 2.91005L8.84995 6.44005L10.81 6.05005L8.06995 2.50005ZM3.15995 3.50005L2.17995 3.69005C1.92235 3.74085 1.67731 3.842 1.45888 3.9877C1.24045 4.1334 1.05293 4.32078 0.907069 4.53911C0.761211 4.75743 0.659883 5.0024 0.608898 5.25996C0.557912 5.51753 0.55827 5.78263 0.609953 6.04005L0.999953 8.00005L5.89995 7.03005L3.15995 3.50005ZM19 10.0001V18.0001H2.99995V10.0001H19ZM21 8.00005H0.999953V18.0001C0.999953 18.5305 1.21067 19.0392 1.58574 19.4143C1.96081 19.7893 2.46952 20.0001 2.99995 20.0001H19C20.11 20.0001 21 19.1101 21 18.0001V8.00005Z" fill="black"/>
</svg>
